<mxfile host="app.diagrams.net" modified="2021-11-01T08:50:05.045Z" agent="5.0 (Windows NT 10.0; Win64; x64) AppleWebKit/537.36 (KHTML, like Gecko) Chrome/95.0.4638.54 Safari/537.36" etag="j4CEqgZd7HeUWVz7lItZ" version="15.6.0" type="github">
  <diagram name="Page-1" id="c4acf3e9-155e-7222-9cf6-157b1a14988f">
    <mxGraphModel dx="782" dy="507" grid="0" gridSize="10" guides="1" tooltips="1" connect="1" arrows="1" fold="1" page="0" pageScale="1" pageWidth="850" pageHeight="1100" background="none" math="0" shadow="0">
      <root>
        <mxCell id="0" />
        <mxCell id="1" parent="0" />
        <mxCell id="17acba5748e5396b-1" value="frame" style="shape=umlFrame;whiteSpace=wrap;html=1;rounded=0;shadow=0;comic=0;labelBackgroundColor=none;strokeWidth=1;fontFamily=Verdana;fontSize=10;align=center;" parent="1" vertex="1">
          <mxGeometry x="200" y="70" width="528" height="650" as="geometry" />
        </mxCell>
        <mxCell id="e7kOok5iGNm4wh7OHVck-1" value="Гость" style="shape=umlActor;verticalLabelPosition=bottom;verticalAlign=top;html=1;outlineConnect=0;" vertex="1" parent="1">
          <mxGeometry x="150" y="120" width="30" height="60" as="geometry" />
        </mxCell>
        <mxCell id="e7kOok5iGNm4wh7OHVck-2" value="Пользователь" style="shape=umlActor;verticalLabelPosition=bottom;verticalAlign=top;html=1;outlineConnect=0;" vertex="1" parent="1">
          <mxGeometry x="150" y="460" width="30" height="60" as="geometry" />
        </mxCell>
        <mxCell id="e7kOok5iGNm4wh7OHVck-3" value="Повар" style="shape=umlActor;verticalLabelPosition=bottom;verticalAlign=top;html=1;outlineConnect=0;" vertex="1" parent="1">
          <mxGeometry x="760" y="570" width="30" height="60" as="geometry" />
        </mxCell>
        <mxCell id="e7kOok5iGNm4wh7OHVck-4" value="Работник&lt;br&gt;склада" style="shape=umlActor;verticalLabelPosition=bottom;verticalAlign=top;html=1;outlineConnect=0;" vertex="1" parent="1">
          <mxGeometry x="760" y="120" width="30" height="60" as="geometry" />
        </mxCell>
        <mxCell id="e7kOok5iGNm4wh7OHVck-5" value="Администратор" style="shape=umlActor;verticalLabelPosition=bottom;verticalAlign=top;html=1;outlineConnect=0;" vertex="1" parent="1">
          <mxGeometry x="760" y="440" width="30" height="60" as="geometry" />
        </mxCell>
        <mxCell id="e7kOok5iGNm4wh7OHVck-6" value="Регистрация пользователя" style="ellipse;whiteSpace=wrap;html=1;" vertex="1" parent="1">
          <mxGeometry x="270" y="80" width="120" height="80" as="geometry" />
        </mxCell>
        <mxCell id="e7kOok5iGNm4wh7OHVck-7" value="Авторизация&lt;br&gt;пользователя" style="ellipse;whiteSpace=wrap;html=1;" vertex="1" parent="1">
          <mxGeometry x="220" y="160" width="120" height="80" as="geometry" />
        </mxCell>
        <mxCell id="e7kOok5iGNm4wh7OHVck-10" value="Сбор заказа с помощью теста" style="ellipse;whiteSpace=wrap;html=1;" vertex="1" parent="1">
          <mxGeometry x="220" y="250" width="120" height="80" as="geometry" />
        </mxCell>
        <mxCell id="e7kOok5iGNm4wh7OHVck-11" value="Просмотр каталога&lt;br&gt;шоколада" style="ellipse;whiteSpace=wrap;html=1;" vertex="1" parent="1">
          <mxGeometry x="240" y="430" width="120" height="80" as="geometry" />
        </mxCell>
        <mxCell id="e7kOok5iGNm4wh7OHVck-12" value="Сбор заказа вручную" style="ellipse;whiteSpace=wrap;html=1;" vertex="1" parent="1">
          <mxGeometry x="240" y="340" width="120" height="80" as="geometry" />
        </mxCell>
        <mxCell id="e7kOok5iGNm4wh7OHVck-13" value="Оформление заказа" style="ellipse;whiteSpace=wrap;html=1;" vertex="1" parent="1">
          <mxGeometry x="240" y="520" width="120" height="80" as="geometry" />
        </mxCell>
        <mxCell id="e7kOok5iGNm4wh7OHVck-14" value="Просмотр личного кабинета" style="ellipse;whiteSpace=wrap;html=1;" vertex="1" parent="1">
          <mxGeometry x="230" y="610" width="120" height="80" as="geometry" />
        </mxCell>
        <mxCell id="e7kOok5iGNm4wh7OHVck-15" value="Просмотр таблицы,&lt;br&gt;со вкусами которые нужно приготовить" style="ellipse;whiteSpace=wrap;html=1;" vertex="1" parent="1">
          <mxGeometry x="580" y="630" width="120" height="80" as="geometry" />
        </mxCell>
        <mxCell id="e7kOok5iGNm4wh7OHVck-16" value="Обновление таблицы готовки и таблицы наличия вкусов на складе" style="ellipse;whiteSpace=wrap;html=1;" vertex="1" parent="1">
          <mxGeometry x="445.5" y="550" width="160" height="90" as="geometry" />
        </mxCell>
        <mxCell id="e7kOok5iGNm4wh7OHVck-17" value="Просмотр всех оплаченных заказов" style="ellipse;whiteSpace=wrap;html=1;" vertex="1" parent="1">
          <mxGeometry x="560" y="79" width="120" height="67" as="geometry" />
        </mxCell>
        <mxCell id="e7kOok5iGNm4wh7OHVck-18" value="Просмотр &lt;br&gt;склада" style="ellipse;whiteSpace=wrap;html=1;" vertex="1" parent="1">
          <mxGeometry x="410" y="110" width="120" height="80" as="geometry" />
        </mxCell>
        <mxCell id="e7kOok5iGNm4wh7OHVck-19" value="Обновление таблицы готовки" style="ellipse;whiteSpace=wrap;html=1;" vertex="1" parent="1">
          <mxGeometry x="538" y="163" width="120" height="62" as="geometry" />
        </mxCell>
        <mxCell id="e7kOok5iGNm4wh7OHVck-20" value="Обновление склада" style="ellipse;whiteSpace=wrap;html=1;" vertex="1" parent="1">
          <mxGeometry x="437" y="222" width="120" height="80" as="geometry" />
        </mxCell>
        <mxCell id="e7kOok5iGNm4wh7OHVck-21" value="Изменение статуса заказа на &quot;Собран&quot;" style="ellipse;whiteSpace=wrap;html=1;" vertex="1" parent="1">
          <mxGeometry x="570" y="290" width="120" height="80" as="geometry" />
        </mxCell>
        <mxCell id="e7kOok5iGNm4wh7OHVck-22" value="Просмотр оформленных заказов" style="ellipse;whiteSpace=wrap;html=1;" vertex="1" parent="1">
          <mxGeometry x="437" y="320" width="120" height="80" as="geometry" />
        </mxCell>
        <mxCell id="e7kOok5iGNm4wh7OHVck-23" value="Изменение статуса заказа на оплачен" style="ellipse;whiteSpace=wrap;html=1;" vertex="1" parent="1">
          <mxGeometry x="445.5" y="420" width="120" height="80" as="geometry" />
        </mxCell>
        <mxCell id="e7kOok5iGNm4wh7OHVck-24" value="Изменение статуса заказа на отправлен" style="ellipse;whiteSpace=wrap;html=1;" vertex="1" parent="1">
          <mxGeometry x="577" y="472" width="120" height="80" as="geometry" />
        </mxCell>
        <mxCell id="e7kOok5iGNm4wh7OHVck-38" value="" style="endArrow=none;html=1;rounded=0;entryX=0;entryY=0.5;entryDx=0;entryDy=0;exitX=0.5;exitY=0.5;exitDx=0;exitDy=0;exitPerimeter=0;" edge="1" parent="1" source="e7kOok5iGNm4wh7OHVck-2" target="e7kOok5iGNm4wh7OHVck-11">
          <mxGeometry width="50" height="50" relative="1" as="geometry">
            <mxPoint x="180" y="510" as="sourcePoint" />
            <mxPoint x="230" y="460" as="targetPoint" />
          </mxGeometry>
        </mxCell>
        <mxCell id="e7kOok5iGNm4wh7OHVck-39" value="" style="endArrow=none;html=1;rounded=0;entryX=0;entryY=0.5;entryDx=0;entryDy=0;exitX=0.5;exitY=0.5;exitDx=0;exitDy=0;exitPerimeter=0;" edge="1" parent="1" source="e7kOok5iGNm4wh7OHVck-1" target="e7kOok5iGNm4wh7OHVck-6">
          <mxGeometry width="50" height="50" relative="1" as="geometry">
            <mxPoint x="187" y="160" as="sourcePoint" />
            <mxPoint x="237" y="110" as="targetPoint" />
          </mxGeometry>
        </mxCell>
        <mxCell id="e7kOok5iGNm4wh7OHVck-40" value="" style="endArrow=none;html=1;rounded=0;entryX=0;entryY=0.5;entryDx=0;entryDy=0;exitX=0.5;exitY=0.5;exitDx=0;exitDy=0;exitPerimeter=0;" edge="1" parent="1" source="e7kOok5iGNm4wh7OHVck-1" target="e7kOok5iGNm4wh7OHVck-7">
          <mxGeometry width="50" height="50" relative="1" as="geometry">
            <mxPoint x="183" y="202" as="sourcePoint" />
            <mxPoint x="233" y="152" as="targetPoint" />
          </mxGeometry>
        </mxCell>
        <mxCell id="e7kOok5iGNm4wh7OHVck-41" value="" style="endArrow=none;html=1;rounded=0;entryX=0;entryY=0.5;entryDx=0;entryDy=0;exitX=0.5;exitY=0.5;exitDx=0;exitDy=0;exitPerimeter=0;" edge="1" parent="1" source="e7kOok5iGNm4wh7OHVck-2" target="e7kOok5iGNm4wh7OHVck-10">
          <mxGeometry width="50" height="50" relative="1" as="geometry">
            <mxPoint x="180" y="416" as="sourcePoint" />
            <mxPoint x="230" y="366" as="targetPoint" />
          </mxGeometry>
        </mxCell>
        <mxCell id="e7kOok5iGNm4wh7OHVck-42" value="" style="endArrow=none;html=1;rounded=0;entryX=0;entryY=0.5;entryDx=0;entryDy=0;exitX=0.5;exitY=0.5;exitDx=0;exitDy=0;exitPerimeter=0;" edge="1" parent="1" source="e7kOok5iGNm4wh7OHVck-2" target="e7kOok5iGNm4wh7OHVck-12">
          <mxGeometry width="50" height="50" relative="1" as="geometry">
            <mxPoint x="187" y="460" as="sourcePoint" />
            <mxPoint x="237" y="410" as="targetPoint" />
          </mxGeometry>
        </mxCell>
        <mxCell id="e7kOok5iGNm4wh7OHVck-43" value="" style="endArrow=none;html=1;rounded=0;entryX=0;entryY=0.5;entryDx=0;entryDy=0;exitX=0.5;exitY=0.5;exitDx=0;exitDy=0;exitPerimeter=0;" edge="1" parent="1" source="e7kOok5iGNm4wh7OHVck-2" target="e7kOok5iGNm4wh7OHVck-13">
          <mxGeometry width="50" height="50" relative="1" as="geometry">
            <mxPoint x="200" y="537" as="sourcePoint" />
            <mxPoint x="250" y="487" as="targetPoint" />
          </mxGeometry>
        </mxCell>
        <mxCell id="e7kOok5iGNm4wh7OHVck-44" value="" style="endArrow=none;html=1;rounded=0;entryX=0;entryY=0.5;entryDx=0;entryDy=0;exitX=0.5;exitY=0.5;exitDx=0;exitDy=0;exitPerimeter=0;" edge="1" parent="1" source="e7kOok5iGNm4wh7OHVck-2" target="e7kOok5iGNm4wh7OHVck-14">
          <mxGeometry width="50" height="50" relative="1" as="geometry">
            <mxPoint x="166" y="623" as="sourcePoint" />
            <mxPoint x="216" y="573" as="targetPoint" />
          </mxGeometry>
        </mxCell>
        <mxCell id="e7kOok5iGNm4wh7OHVck-45" value="" style="endArrow=none;html=1;rounded=0;exitX=1;exitY=0.5;exitDx=0;exitDy=0;entryX=0.5;entryY=0.5;entryDx=0;entryDy=0;entryPerimeter=0;" edge="1" parent="1" source="e7kOok5iGNm4wh7OHVck-17" target="e7kOok5iGNm4wh7OHVck-4">
          <mxGeometry width="50" height="50" relative="1" as="geometry">
            <mxPoint x="672" y="158" as="sourcePoint" />
            <mxPoint x="722" y="108" as="targetPoint" />
          </mxGeometry>
        </mxCell>
        <mxCell id="e7kOok5iGNm4wh7OHVck-46" value="" style="endArrow=none;html=1;rounded=0;exitX=1;exitY=0.5;exitDx=0;exitDy=0;entryX=0.5;entryY=0.5;entryDx=0;entryDy=0;entryPerimeter=0;" edge="1" parent="1" source="e7kOok5iGNm4wh7OHVck-18" target="e7kOok5iGNm4wh7OHVck-4">
          <mxGeometry width="50" height="50" relative="1" as="geometry">
            <mxPoint x="647" y="186" as="sourcePoint" />
            <mxPoint x="697" y="136" as="targetPoint" />
          </mxGeometry>
        </mxCell>
        <mxCell id="e7kOok5iGNm4wh7OHVck-47" value="" style="endArrow=none;html=1;rounded=0;entryX=0.5;entryY=0.5;entryDx=0;entryDy=0;entryPerimeter=0;exitX=1;exitY=0.5;exitDx=0;exitDy=0;" edge="1" parent="1" source="e7kOok5iGNm4wh7OHVck-19" target="e7kOok5iGNm4wh7OHVck-4">
          <mxGeometry width="50" height="50" relative="1" as="geometry">
            <mxPoint x="458" y="253" as="sourcePoint" />
            <mxPoint x="508" y="203" as="targetPoint" />
          </mxGeometry>
        </mxCell>
        <mxCell id="e7kOok5iGNm4wh7OHVck-48" value="" style="endArrow=none;html=1;rounded=0;entryX=0.5;entryY=0.5;entryDx=0;entryDy=0;entryPerimeter=0;exitX=1;exitY=0.5;exitDx=0;exitDy=0;" edge="1" parent="1" source="e7kOok5iGNm4wh7OHVck-20" target="e7kOok5iGNm4wh7OHVck-4">
          <mxGeometry width="50" height="50" relative="1" as="geometry">
            <mxPoint x="662" y="255" as="sourcePoint" />
            <mxPoint x="712" y="205" as="targetPoint" />
          </mxGeometry>
        </mxCell>
        <mxCell id="e7kOok5iGNm4wh7OHVck-49" value="" style="endArrow=none;html=1;rounded=0;exitX=1;exitY=0.5;exitDx=0;exitDy=0;entryX=0.5;entryY=0.5;entryDx=0;entryDy=0;entryPerimeter=0;" edge="1" parent="1" source="e7kOok5iGNm4wh7OHVck-21" target="e7kOok5iGNm4wh7OHVck-5">
          <mxGeometry width="50" height="50" relative="1" as="geometry">
            <mxPoint x="600" y="432" as="sourcePoint" />
            <mxPoint x="650" y="382" as="targetPoint" />
          </mxGeometry>
        </mxCell>
        <mxCell id="e7kOok5iGNm4wh7OHVck-50" value="" style="endArrow=none;html=1;rounded=0;entryX=0.5;entryY=0.5;entryDx=0;entryDy=0;entryPerimeter=0;exitX=1;exitY=0.5;exitDx=0;exitDy=0;" edge="1" parent="1" source="e7kOok5iGNm4wh7OHVck-22" target="e7kOok5iGNm4wh7OHVck-5">
          <mxGeometry width="50" height="50" relative="1" as="geometry">
            <mxPoint x="600" y="432" as="sourcePoint" />
            <mxPoint x="650" y="382" as="targetPoint" />
          </mxGeometry>
        </mxCell>
        <mxCell id="e7kOok5iGNm4wh7OHVck-51" value="" style="endArrow=none;html=1;rounded=0;entryX=0.5;entryY=0.5;entryDx=0;entryDy=0;entryPerimeter=0;exitX=1;exitY=0.5;exitDx=0;exitDy=0;" edge="1" parent="1" source="e7kOok5iGNm4wh7OHVck-23" target="e7kOok5iGNm4wh7OHVck-5">
          <mxGeometry width="50" height="50" relative="1" as="geometry">
            <mxPoint x="600" y="432" as="sourcePoint" />
            <mxPoint x="650" y="382" as="targetPoint" />
          </mxGeometry>
        </mxCell>
        <mxCell id="e7kOok5iGNm4wh7OHVck-52" value="" style="endArrow=none;html=1;rounded=0;entryX=0.5;entryY=0.5;entryDx=0;entryDy=0;entryPerimeter=0;exitX=1;exitY=0.5;exitDx=0;exitDy=0;" edge="1" parent="1" source="e7kOok5iGNm4wh7OHVck-24" target="e7kOok5iGNm4wh7OHVck-5">
          <mxGeometry width="50" height="50" relative="1" as="geometry">
            <mxPoint x="600" y="432" as="sourcePoint" />
            <mxPoint x="650" y="382" as="targetPoint" />
          </mxGeometry>
        </mxCell>
        <mxCell id="e7kOok5iGNm4wh7OHVck-53" value="" style="endArrow=none;html=1;rounded=0;entryX=0.5;entryY=0.5;entryDx=0;entryDy=0;entryPerimeter=0;exitX=1;exitY=0.5;exitDx=0;exitDy=0;" edge="1" parent="1" source="e7kOok5iGNm4wh7OHVck-16" target="e7kOok5iGNm4wh7OHVck-3">
          <mxGeometry width="50" height="50" relative="1" as="geometry">
            <mxPoint x="441" y="532" as="sourcePoint" />
            <mxPoint x="491" y="482" as="targetPoint" />
          </mxGeometry>
        </mxCell>
        <mxCell id="e7kOok5iGNm4wh7OHVck-54" value="" style="endArrow=none;html=1;rounded=0;entryX=0.5;entryY=0.5;entryDx=0;entryDy=0;entryPerimeter=0;exitX=1;exitY=0.5;exitDx=0;exitDy=0;" edge="1" parent="1" source="e7kOok5iGNm4wh7OHVck-15" target="e7kOok5iGNm4wh7OHVck-3">
          <mxGeometry width="50" height="50" relative="1" as="geometry">
            <mxPoint x="441" y="532" as="sourcePoint" />
            <mxPoint x="491" y="482" as="targetPoint" />
          </mxGeometry>
        </mxCell>
      </root>
    </mxGraphModel>
  </diagram>
</mxfile>
